Coordinates
version=1
nRows=11
nColumns=36
inDegrees=yes

Units are S.I. units (second, meters, Newtons, ...)
If the header above contains a line with 'inDegrees', this indicates whether rotational values are in degrees (yes) or radians (no).

endheader
time	pelvis_tilt	pelvis_list	pelvis_rotation	pelvis_tx	pelvis_ty	pelvis_tz	hip_flexion_r	hip_adduction_r	hip_rotation_r	knee_angle_r	knee_angle_r_beta	ankle_angle_r	subtalar_angle_r	mtp_angle_r	hip_flexion_l	hip_adduction_l	hip_rotation_l	knee_angle_l	knee_angle_l_beta	ankle_angle_l	subtalar_angle_l	mtp_angle_l	lumbar_extension	lumbar_bending	lumbar_rotation	arm_flex_r	arm_add_r	arm_rot_r	elbow_flex_r	pro_sup_r	arm_flex_l	arm_add_l	arm_rot_l	elbow_flex_l	pro_sup_l
      0.00000000	      1.35663253	     -0.66804881	     -0.19959374	      0.89399672	      0.98525908	      0.28940962	     -3.39921505	      0.10417788	     -5.19979031	      2.41648810	      0.04217567	      9.42896622	      4.80643362	     -6.38340393	     -1.25312054	    -15.45352745	    -12.57418983	      6.64739475	      0.11601893	     -3.80920888	     -2.20540734	     -6.38340393	     -1.72052585	      5.39200319	     -1.21621856	     46.13961192	     -0.70084012	     52.83242515	    117.41461471	     74.65953034	     33.85822580	     15.73588143	     58.24682388	    102.97323437	    100.56438378
      0.01666670	      0.28327007	     -0.72394725	      0.10559762	      0.89681391	      0.98681494	      0.28863812	     -2.44624357	      0.56805958	     -4.98023433	      1.79572603	      0.03134133	     10.45248825	      3.40709601	     -6.69800335	     -0.70270231	    -16.20322230	    -16.75481369	      5.97327116	      0.10425325	     -1.54687792	      3.48315811	     -6.69800335	      1.53676482	      7.01582214	     -1.54119634	     48.36595833	     -0.88539529	     60.36485039	    122.40587844	     90.90789378	     34.48966974	     12.16188052	     57.97119590	    112.26525254	    106.18620144
      0.03333330	      0.90251099	     -1.19878718	     -0.13509536	      0.89884688	      0.98760564	      0.28496451	     -2.39987951	      1.20318104	     -4.43812862	      2.92798186	      0.05110292	     11.61949903	      4.03263754	     -6.70940104	     -1.05350688	    -17.51371718	    -19.90223047	      7.14269572	      0.12466356	     -2.90651891	      4.42865303	     -6.70940104	      1.73155856	      8.30499055	     -1.71208648	     48.61272258	     -0.41668911	     61.90445435	    123.55648827	     91.38333686	     35.31203785	      9.96476435	     58.60666706	    113.37093698	    106.44499707
      0.05000000	      1.04611463	     -1.57058015	      0.27682097	      0.89373144	      0.98904193	      0.28594176	     -2.01108510	      1.86316187	     -5.35015810	      3.55585420	      0.06206136	     11.82440280	      4.90365466	     -6.75793981	     -0.55130143	    -18.48747101	    -22.19678774	      8.00878072	      0.13977959	     -2.70642866	      6.42082922	     -6.75793981	      1.87223232	      9.49670737	     -2.96955909	     49.42046865	      1.03678639	     64.16690194	    122.42747108	     93.61674502	     35.24591220	      8.32475698	     58.07900461	    114.98378175	    107.72628336
      0.06666670	      0.93580952	     -1.67900623	      0.70399100	      0.89243995	      0.98897953	      0.28460241	     -1.49318868	      2.19941076	     -5.86835089	      3.87913632	      0.06770370	     11.69267185	      4.97789058	     -7.17294413	     -0.08895191	    -18.77987460	    -23.50786796	      8.12313265	      0.14177541	     -2.91044698	      7.19799815	     -7.17294413	      2.17476942	      9.87975609	     -3.33013628	     49.38779673	      1.21199247	     64.47378921	    121.99279605	     95.56138573	     34.98315437	      5.61584289	     54.21592301	    115.00281126	    108.74037190
      0.08333330	      0.79884958	     -1.63979550	      1.20567502	      0.89235341	      0.98610103	      0.28341852	     -1.09146340	      2.33876570	     -6.34509664	      4.01033531	      0.06999356	     11.35796975	      4.84023198	     -7.37409728	      0.43276559	    -18.87862690	    -24.24545031	      8.32209845	      0.14524802	     -3.09377607	      7.82693339	     -7.37409728	      2.40123080	     10.12339901	     -4.23766893	     49.83979762	      1.51214695	     64.09426587	    121.02834767	     94.66709096	     34.28981377	      2.18282581	     45.30523735	    114.18942544	    106.70152582
      0.10000000	      0.73032641	     -1.52973458	      1.71402023	      0.88860365	      0.98960579	      0.28493653	     -0.91048218	      2.38158792	     -6.87642592	      3.95078558	      0.06895422	     11.19377480	      4.67661248	     -7.37667091	      0.88014241	    -18.89381562	    -24.53291076	      8.51020133	      0.14853103	     -3.31206024	      8.16582790	     -7.37667091	      2.35812359	     10.08562790	     -4.35532228	     49.68996175	      1.25713022	     63.08650943	    120.33006798	     94.62926318	     34.13777322	      0.63492727	     38.23686557	    110.85617003	    106.20004053
      0.11666670	      0.48658535	     -1.39286488	      2.16096717	      0.88921298	      0.99319319	      0.28426691	     -0.63807747	      2.33861654	     -7.33919560	      3.78196778	      0.06600779	     11.06484413	      4.58760936	     -7.37876458	      1.47112375	    -18.80328486	    -24.73846726	      8.61564749	      0.15037142	     -3.53212499	      8.40107208	     -7.37876458	      2.59631299	     10.44773452	     -4.86191852	     49.78485006	      2.42538457	     63.74462966	    118.68559639	     94.77856547	     34.63476521	      2.01601629	     42.25753630	    113.30890074	    106.58068011
      0.13333330	      0.52194756	     -1.24424387	      2.69089309	      0.88960837	      0.99485889	      0.28367960	     -0.77086010	      2.26704175	     -7.88163082	      3.49910570	      0.06107092	     11.15817536	      4.66863434	     -7.40719204	      1.76007673	    -18.70166179	    -24.81158427	      8.66614845	      0.15125282	     -3.88009643	      8.52780840	     -7.40719204	      2.52506728	     10.53962093	     -4.86110419	     49.28864842	      2.98411017	     64.29843606	    118.15594325	     94.45966983	     35.68686374	      3.54223071	     48.68402122	    114.09719912	    107.71987092
      0.15000000	      0.52912258	     -1.13451494	      3.01171557	      0.88521823	      0.99397618	      0.28625115	     -0.79584377	      2.23608994	     -8.17111528	      3.25715597	      0.05684810	     11.15723621	      4.59157659	     -7.40867346	      2.07487438	    -18.65626091	    -24.73584213	      8.77433282	      0.15314100	     -4.32755260	      8.42934122	     -7.40867346	      2.41045242	     10.75837630	     -5.11700212	     49.21471837	      3.84550414	     64.72954626	    117.18890943	     94.43288236	     36.22344924	      4.23534860	     52.89407228	    115.17579012	    108.19103739
      0.16666670	      0.81176050	     -1.05676529	      3.28708949	      0.88523537	      0.99163364	      0.28589303	     -1.20836497	      2.25973026	     -8.46559556	      2.93350511	      0.05119932	     11.29800405	      4.73410556	     -7.42370492	      2.02502736	    -18.64369500	    -24.74186048	      8.80551905	      0.15368530	     -4.71186688	      8.29419864	     -7.42370492	      2.00216310	     10.74421040	     -4.80132904	     49.34997217	      3.91749293	     64.66713171	    117.59196928	     92.29116334	     37.29855335	      5.10516312	     56.41434820	    115.52467255	    106.32148226
